# xmcd
#
# Track frame offsets:
#   150
#   10352
#   22226
#   37169
#   47832
#   64573
#   80714
#   92789
#   104763
#   118295
#   131184
#   149084
#
# Disc length: 2164 seconds
#
# Revision: 0
# Processed by: cddbd v1.4PL0 Copyright (c) Steve Scherf et al.
# Submitted via: BirdCage ASPI Rip 3.0.2
#
DISCID=bf08720c
DTITLE=The Junkers - Live Characters Nightly
DYEAR=2004
DGENRE=Country
TTITLE0=Tie One On
TTITLE1=Friend of the Family
TTITLE2=I Always Cry at Divorces
TTITLE3=Cowboy La Cage Aux Folles
TTITLE4=Grizzly
TTITLE5=Pretty Cups and Saucers
TTITLE6=Bad Dog
TTITLE7=Saturday Morning Cartoon
TTITLE8=It's Only Funny (Because It's True)
TTITLE9=Too Drunk For Church
TTITLE10=Hollow Log
TTITLE11=(Baby Let Me Be Your) Desert Storm
EXTD=
EXTT0=
EXTT1=
EXTT2=
EXTT3=
EXTT4=
EXTT5=
EXTT6=
EXTT7=
EXTT8=
EXTT9=
EXTT10=
EXTT11=
PLAYORDER=
